<svg width="64" height="64" viewBox="0 0 64 64" xmlns="http://www.w3.org/2000/svg" role="img" aria-labelledby="title desc">
  <title id="title">G5 Bygg ikon</title>
  <desc id="desc">Kvadratisk ikon med G-formad cirkel och siffra 5 i gradient, används som favicon.</desc>
  <defs>
    <linearGradient id="fiveGradient" x1="0%" y1="0%" x2="100%" y2="100%">
      <stop offset="0%" stop-color="#8c2735" />
      <stop offset="100%" stop-color="#5a0f1b" />
    </linearGradient>
  </defs>
  <rect width="64" height="64" rx="12" fill="#101820" />
  <path d="M34 16c-9.94 0-18 8.06-18 18s8.06 18 18 18c6.28 0 11.85-3.1 15.04-8H41.6c-2.1 1.9-4.87 3-7.6 3-6.63 0-12-5.37-12-12s5.37-12 12-12c4.3 0 8.12 2.18 10.32 5.5H32v6h18.9c.08.66.1 1.34.1 2 0 11.05-8.95 20-20 20S14 45.05 14 34s8.95-20 20-20c6.98 0 13.14 3.53 16.86 8.94l4.9-3.6C50.2 19.3 42.7 16 34 16Z" fill="#f8f7f4" />
  <path d="M40.5 16H52v6h-8.1l-1.3 6.9h5.2c7 0 11.9 4.7 11.9 11.5 0 7.63-5.56 12.6-13.02 12.6-6.62 0-11.66-3.86-12.86-9.75h6.92c.84 2.16 2.87 3.45 5.34 3.45 3.51 0 5.78-2.39 5.78-5.89 0-3.21-2.21-5.41-5.61-5.41h-9.42L40.5 16Z" fill="url(#fiveGradient)" />
</svg>
