<svg xmlns="http://www.w3.org/2000/svg" viewBox="0 0 96 96">
  <rect width="96" height="96" rx="20" fill="#f5f2f0"/>
  <path fill="#101218" d="M42 16C25.43 16 12 29.43 12 46s13.43 30 30 30c9.98 0 18.67-4.24 24.35-11.27l-15.18-.06C47.6 69.82 43.32 72 38.67 72 28.45 72 20 63.55 20 53.33S28.45 34.67 38.67 34.67c6.39 0 11.98 3.1 15.63 7.92H37.5c-1.84 0-3.33 1.49-3.33 3.33v8.37c0 1.84 1.49 3.33 3.33 3.33h26.61c.06-.89.1-1.78.1-2.69C64.21 31.8 54.74 16 42 16Z"/>
  <path fill="#6d1124" d="M63 18h20v10H66.43l-2.17 12.76h8c12.45 0 21.87 8.29 21.87 20.29C94.13 72.34 83.32 80 69.91 80c-11.7 0-20.88-6.63-23.79-17.68h13.1c1.98 4.38 6.44 7.1 11.44 7.1 7.08 0 12.01-5 12.01-12.35 0-6.77-4.59-11.22-11.36-11.22H55.18L63 18Z"/>
</svg>
