<svg width="260" height="140" viewBox="0 0 260 140" xmlns="http://www.w3.org/2000/svg" role="img" aria-labelledby="title desc">
  <title id="title">G5 Bygg logotyp</title>
  <desc id="desc">Stiliserad logotyp med bokstäverna G och 5 samt texten BYGG under.</desc>
  <defs>
    <linearGradient id="fiveGradient" x1="0%" y1="0%" x2="100%" y2="100%">
      <stop offset="0%" stop-color="#8c2735"/>
      <stop offset="100%" stop-color="#5a0f1b"/>
    </linearGradient>
  </defs>
  <g fill="none" fill-rule="evenodd">
    <path d="M88 114c-33.69 0-61-27.31-61-61s27.31-61 61-61c22.37 0 41.66 10.72 52.23 27.15L122.4 35C115.16 25.02 102.54 19 88 19c-19.88 0-36 16.12-36 36s16.12 36 36 36c12.42 0 22.9-5.76 29.64-14.64H88V57h47.51A60.79 60.79 0 0 1 149 53.05c.65 3.05 1 6.2 1 9.45 0 28.22-23.78 51.5-62 51.5Z" fill="#101820"/>
    <path d="M180.63 19H230v20h-34.74l-3.05 17.38h17.1c20.5 0 35.69 14.42 35.69 33.92C244.99 109.04 228.04 123 206.07 123c-19.02 0-34.41-11.63-37.87-29.38h22.27c2.25 6.75 7.88 10.88 15.37 10.88 9.75 0 16.1-6.63 16.1-16.38 0-8.87-6.12-15.25-15.5-15.25h-33.62L180.63 19Z" fill="url(#fiveGradient)"/>
<path d="M214.25 99.5 ... 18.78Z" fill="#6a1623" fill-opacity="0.25"/>
    <text x="130" y="134" text-anchor="middle" font-family="'Urbanist', 'Segoe UI', sans-serif" font-size="28" letter-spacing="0.5em" fill="#101820">BYGG</text>
  </g>
</svg>
