<svg xmlns="http://www.w3.org/2000/svg" viewBox="0 0 320 220" role="img" aria-labelledby="title desc">
  <title id="title">G5 Bygg AB logotyp</title>
  <desc id="desc">Logotyp med svart G som möter en vinröd 5:a och texten BYGG under.</desc>
  <g fill="none" fill-rule="evenodd">
    <path fill="#101218" d="M140 22c-58.46 0-106 47.54-106 106s47.54 106 106 106c38.45 0 70.95-18.64 90.75-48.57l-38.14-.14c-13.7 16.8-34.76 27.71-57.6 27.71-40.69 0-73.67-32.98-73.67-73.67S94.31 65.67 135 65.67c23.74 0 44.26 10.53 57.8 27.94h-55.08c-4.64 0-8.4 3.76-8.4 8.4v21.12c0 4.64 3.76 8.4 8.4 8.4h96.67c.21-2.69.31-5.39.31-8.11 0-55.86-44.64-101.42-102.7-101.42Z"/>
    <path fill="#6d1124" d="M228.6 32h67.13v33.15h-57.16l-6.48 38.17h22.92c36.64 0 64.39 24.37 64.39 59.6 0 39.42-29.6 65.08-71.09 65.08-33.43 0-59.62-18.91-67.74-50.41h39.8c5.24 12.16 17.02 19.72 30.6 19.72 18.84 0 31.97-13.31 31.97-32.86 0-17.98-12.19-29.8-30.17-29.8h-41.86L228.6 32Z"/>
    <path fill="#8e2233" d="M263.8 187.27c-16.02 0-29.64-8.71-36.11-22.46h-34.7c7.76 31.99 35.73 53.12 69.51 53.12 39.73 0 68.29-25.58 68.29-64.96 0-27.75-14.59-49.31-38.62-58.87 16.3 11.12 25.86 28.32 25.86 49.77 0 28.21-22.02 43.4-54.23 43.4Z"/>
    <text x="160" y="208" text-anchor="middle" font-family="'Urbanist', 'Segoe UI', sans-serif" font-size="32" letter-spacing="0.32em" fill="#101218">BYGG</text>
  </g>
</svg>
